<svg width="32" height="32" viewBox="0 0 32 32" fill="none" xmlns="http://www.w3.org/2000/svg">
<g clip-path="url(#clip0_301_23)">
<path fill-rule="evenodd" clip-rule="evenodd" d="M21.2149 30.8572L21.1874 30.9199C20.7304 31.9722 20.2879 32.2502 19.902 32.165C19.407 32.0552 19.1198 31.6717 18.9504 31.1896C18.8013 30.7644 18.5755 28.615 18.4895 27.7458C18.4673 27.4445 18.3415 25.6855 18.319 25.3686C18.2961 25.0627 18.1231 23.2442 18.097 22.9376C18.0603 22.6168 17.6978 21.1343 17.6538 20.8287C17.584 20.546 17.5075 20.2817 17.4237 20.0414C17.0558 18.9859 16.0344 17.7872 15.1841 19.1671C14.4551 20.3484 13.9636 23.2261 13.7367 27.9372C13.6356 30.0351 11.4232 31.2157 10.5462 28.3011C9.17062 23.7295 9.06352 22.4091 8.43246 17.4936C6.61825 14.8168 5.74619 10.0354 5.44386 8.09798C3.38367 4.67659 2.65396 2.66161 2 0C8.31371 11.5712 17.1315 18.7807 30 23.0771C27.1964 22.8854 24.9177 22.3062 23.0323 21.7987C22.9618 22.1187 22.7818 23.2478 22.7088 23.7321C21.3559 23.2642 19.1174 22.342 17.6538 20.8287C18.5484 22.4993 21.6032 24.4208 22.5503 24.78C22.4975 25.1255 22.4432 25.4738 22.3875 25.821C20.796 25.2868 19.1297 24.2233 18.097 22.9376C18.7591 24.3849 20.7748 26.2799 22.2124 26.8682C22.1522 27.2129 22.0898 27.5515 22.025 27.8809C20.6639 27.4079 19.3506 26.4981 18.319 25.3686C18.7101 26.1657 19.7256 27.6221 21.8047 28.9154C21.7258 29.2551 21.643 29.5763 21.5567 29.8734C20.4472 29.432 19.3521 28.6954 18.4895 27.7458C18.9324 28.7295 19.6495 29.7165 21.2149 30.8572V30.8572Z" fill="#5A5A5A"/>
<path fill-rule="evenodd" clip-rule="evenodd" d="M6.28906 5.09963C8.54183 8.24826 14.103 9.68712 18.5923 7.1697C25.5228 3.28369 24.818 10.5751 23.2301 13.7347C22.4476 15.2914 22.7236 16.8285 23.5993 17.1444C23.5993 17.1444 25.8304 13.2801 26.2071 9.41773C26.4439 6.98901 25.8514 4.99715 24.6201 3.8274C23.6621 2.91786 21.9169 2.4397 20.3259 2.71402C16.8228 3.31738 16.257 6.80828 11.6975 6.07455C13.8917 6.13008 14.9568 5.23184 15.7931 4.21237C11.9017 4.75127 8.76736 -0.00127989 6.28906 5.09963V5.09963Z" fill="#F3F3F3"/>
</g>
<defs>
<clipPath id="clip0_301_23">
<rect width="32" height="32" fill="white"/>
</clipPath>
</defs>
</svg>

